<svg xmlns="http://www.w3.org/2000/svg" viewBox="0 0 24 24" fill="currentColor" width="28" height="28" data-ux="Icon" id="popup-widget112383-close-icon" class="x-el x-el-svg c1-1 c1-2 c1-88 c1-3j c1-4b c1-r c1-g6 c1-s c1-g7 c1-3a c1-ez c1-3 c1-g8 c1-g9 c1-b c1-c c1-d c1-e c1-f c1-g"><path fill-rule="evenodd" d="M19.219 5.22a.75.75 0 0 0-1.061 0l-5.939 5.939-5.939-5.94a.75.75 0 1 0-1.061 1.062l5.939 5.939-5.939 5.939a.752.752 0 0 0 0 1.06.752.752 0 0 0 1.061 0l5.939-5.938 5.939 5.939a.75.75 0 1 0 1.061-1.061l-5.939-5.94 5.939-5.938a.75.75 0 0 0 0-1.061"/></svg>