<svg xmlns="http://www.w3.org/2000/svg" viewBox="0 0 24 24" fill="currentColor" width="40px" height="40px" data-ux="NavigationDrawerCloseIcon" data-edit-interactive="true" data-close="true" class="x-el x-el-svg c1-1 c1-2 c1-89 c1-3j c1-4b c1-3l c1-3m c1-3n c1-3o c1-3a c1-8a c1-8b c1-6e c1-8c c1-8d c1-8e c1-b c1-8f c1-8g c1-8h c1-8i c1-8j"><path fill-rule="evenodd" d="M19.219 5.22a.75.75 0 0 0-1.061 0l-5.939 5.939-5.939-5.94a.75.75 0 1 0-1.061 1.062l5.939 5.939-5.939 5.939a.752.752 0 0 0 0 1.06.752.752 0 0 0 1.061 0l5.939-5.938 5.939 5.939a.75.75 0 1 0 1.061-1.061l-5.939-5.94 5.939-5.938a.75.75 0 0 0 0-1.061"/></svg>